<svg width="392" height="68" viewBox="0 0 392 68" fill="none" xmlns="http://www.w3.org/2000/svg">
<g filter="url(#filter0_d_1_1979)">
<rect x="6" y="6" width="380" height="56" rx="28" fill="white"/>
<path d="M145.999 34.7266C146.011 34.0251 145.938 33.3248 145.783 32.6406H136.203V36.4272H141.827C141.72 37.0911 141.48 37.7266 141.122 38.2955C140.763 38.8644 140.294 39.3549 139.741 39.7376L139.721 39.8644L142.75 42.2109L142.96 42.2319C144.887 40.4519 145.998 37.8329 145.998 34.7266" fill="#4285F4"/>
<path d="M136.203 44.7038C138.958 44.7038 141.271 43.7968 142.96 42.2322L139.741 39.7379C138.879 40.339 137.723 40.7585 136.203 40.7585C134.913 40.7509 133.658 40.3373 132.616 39.5762C131.574 38.8151 130.798 37.7452 130.399 36.5183L130.279 36.5285L127.129 38.966L127.088 39.0804C127.937 40.771 129.238 42.1923 130.848 43.1854C132.458 44.1785 134.312 44.7042 136.204 44.7038" fill="#34A853"/>
<path d="M130.399 36.5182C130.176 35.8687 130.06 35.187 130.058 34.5002C130.062 33.8146 130.173 33.1338 130.387 32.4823L130.381 32.347L127.193 29.8704L127.088 29.92C126.373 31.3407 126 32.9094 126 34.5001C126 36.0909 126.373 37.6596 127.088 39.0803L130.399 36.5182Z" fill="#FBBC05"/>
<path d="M136.203 28.2422C137.666 28.2195 139.08 28.764 140.149 29.7614L143.029 26.9497C141.182 25.2171 138.736 24.2664 136.203 24.2969C134.312 24.2964 132.458 24.8221 130.848 25.8151C129.238 26.8082 127.936 28.2295 127.088 29.92L130.387 32.4823C130.791 31.2557 131.569 30.1866 132.613 29.4259C133.656 28.6652 134.912 28.2511 136.203 28.2422Z" fill="#EB4335"/>
<path d="M162.256 39.098C161.603 39.098 161.015 38.986 160.492 38.762C159.969 38.5287 159.559 38.202 159.26 37.782C158.961 37.362 158.812 36.872 158.812 36.312H160.52C160.557 36.732 160.721 37.0773 161.01 37.348C161.309 37.6187 161.724 37.754 162.256 37.754C162.807 37.754 163.236 37.6233 163.544 37.362C163.852 37.0913 164.006 36.746 164.006 36.326C164.006 35.9993 163.908 35.7333 163.712 35.528C163.525 35.3227 163.287 35.164 162.998 35.052C162.718 34.94 162.326 34.8187 161.822 34.688C161.187 34.52 160.669 34.352 160.268 34.184C159.876 34.0067 159.54 33.736 159.26 33.372C158.98 33.008 158.84 32.5227 158.84 31.916C158.84 31.356 158.98 30.866 159.26 30.446C159.54 30.026 159.932 29.704 160.436 29.48C160.94 29.256 161.523 29.144 162.186 29.144C163.129 29.144 163.899 29.382 164.496 29.858C165.103 30.3247 165.439 30.9687 165.504 31.79H163.74C163.712 31.4353 163.544 31.132 163.236 30.88C162.928 30.628 162.522 30.502 162.018 30.502C161.561 30.502 161.187 30.6187 160.898 30.852C160.609 31.0853 160.464 31.4213 160.464 31.86C160.464 32.1587 160.553 32.406 160.73 32.602C160.917 32.7887 161.15 32.938 161.43 33.05C161.71 33.162 162.093 33.2833 162.578 33.414C163.222 33.5913 163.745 33.7687 164.146 33.946C164.557 34.1233 164.902 34.3987 165.182 34.772C165.471 35.136 165.616 35.626 165.616 36.242C165.616 36.7367 165.481 37.2033 165.21 37.642C164.949 38.0807 164.561 38.4353 164.048 38.706C163.544 38.9673 162.947 39.098 162.256 39.098ZM168.311 30.264C168.022 30.264 167.779 30.166 167.583 29.97C167.387 29.774 167.289 29.5313 167.289 29.242C167.289 28.9527 167.387 28.71 167.583 28.514C167.779 28.318 168.022 28.22 168.311 28.22C168.591 28.22 168.829 28.318 169.025 28.514C169.221 28.71 169.319 28.9527 169.319 29.242C169.319 29.5313 169.221 29.774 169.025 29.97C168.829 30.166 168.591 30.264 168.311 30.264ZM169.095 31.286V39H167.499V31.286H169.095ZM174.299 31.16C174.896 31.16 175.423 31.2813 175.881 31.524C176.347 31.7573 176.711 32.0513 176.973 32.406V31.286H178.583V39.126C178.583 39.8353 178.433 40.4653 178.135 41.016C177.836 41.576 177.402 42.0147 176.833 42.332C176.273 42.6493 175.601 42.808 174.817 42.808C173.771 42.808 172.903 42.5607 172.213 42.066C171.522 41.5807 171.13 40.918 171.037 40.078H172.619C172.74 40.4793 172.997 40.8013 173.389 41.044C173.79 41.296 174.266 41.422 174.817 41.422C175.461 41.422 175.979 41.226 176.371 40.834C176.772 40.442 176.973 39.8727 176.973 39.126V37.838C176.702 38.202 176.333 38.51 175.867 38.762C175.409 39.0047 174.887 39.126 174.299 39.126C173.627 39.126 173.011 38.958 172.451 38.622C171.9 38.2767 171.461 37.8007 171.135 37.194C170.817 36.578 170.659 35.8827 170.659 35.108C170.659 34.3333 170.817 33.6473 171.135 33.05C171.461 32.4527 171.9 31.9907 172.451 31.664C173.011 31.328 173.627 31.16 174.299 31.16ZM176.973 35.136C176.973 34.604 176.861 34.142 176.637 33.75C176.422 33.358 176.137 33.0593 175.783 32.854C175.428 32.6487 175.045 32.546 174.635 32.546C174.224 32.546 173.841 32.6487 173.487 32.854C173.132 33.05 172.843 33.344 172.619 33.736C172.404 34.1187 172.297 34.576 172.297 35.108C172.297 35.64 172.404 36.1067 172.619 36.508C172.843 36.9093 173.132 37.2173 173.487 37.432C173.851 37.6373 174.233 37.74 174.635 37.74C175.045 37.74 175.428 37.6373 175.783 37.432C176.137 37.2267 176.422 36.928 176.637 36.536C176.861 36.1347 176.973 35.668 176.973 35.136ZM184.571 31.16C185.178 31.16 185.719 31.286 186.195 31.538C186.68 31.79 187.058 32.1633 187.329 32.658C187.6 33.1527 187.735 33.75 187.735 34.45V39H186.153V34.688C186.153 33.9973 185.98 33.47 185.635 33.106C185.29 32.7327 184.818 32.546 184.221 32.546C183.624 32.546 183.148 32.7327 182.793 33.106C182.448 33.47 182.275 33.9973 182.275 34.688V39H180.679V31.286H182.275V32.168C182.536 31.8507 182.868 31.6033 183.269 31.426C183.68 31.2487 184.114 31.16 184.571 31.16ZM194.989 29.27V35.472C194.989 36.2093 195.181 36.7647 195.563 37.138C195.955 37.5113 196.497 37.698 197.187 37.698C197.887 37.698 198.429 37.5113 198.811 37.138C199.203 36.7647 199.399 36.2093 199.399 35.472V29.27H200.995V35.444C200.995 36.2373 200.823 36.9093 200.477 37.46C200.132 38.0107 199.67 38.4213 199.091 38.692C198.513 38.9627 197.873 39.098 197.173 39.098C196.473 39.098 195.834 38.9627 195.255 38.692C194.686 38.4213 194.233 38.0107 193.897 37.46C193.561 36.9093 193.393 36.2373 193.393 35.444V29.27H194.989ZM204.669 32.42C204.94 32.0653 205.309 31.7667 205.775 31.524C206.242 31.2813 206.769 31.16 207.357 31.16C208.029 31.16 208.641 31.328 209.191 31.664C209.751 31.9907 210.19 32.4527 210.507 33.05C210.825 33.6473 210.983 34.3333 210.983 35.108C210.983 35.8827 210.825 36.578 210.507 37.194C210.19 37.8007 209.751 38.2767 209.191 38.622C208.641 38.958 208.029 39.126 207.357 39.126C206.769 39.126 206.247 39.0093 205.789 38.776C205.332 38.5333 204.959 38.2347 204.669 37.88V42.668H203.073V31.286H204.669V32.42ZM209.359 35.108C209.359 34.576 209.247 34.1187 209.023 33.736C208.809 33.344 208.519 33.05 208.155 32.854C207.801 32.6487 207.418 32.546 207.007 32.546C206.606 32.546 206.223 32.6487 205.859 32.854C205.505 33.0593 205.215 33.358 204.991 33.75C204.777 34.142 204.669 34.604 204.669 35.136C204.669 35.668 204.777 36.1347 204.991 36.536C205.215 36.928 205.505 37.2267 205.859 37.432C206.223 37.6373 206.606 37.74 207.007 37.74C207.418 37.74 207.801 37.6373 208.155 37.432C208.519 37.2173 208.809 36.9093 209.023 36.508C209.247 36.1067 209.359 35.64 209.359 35.108ZM223.24 32.07C222.988 31.5847 222.638 31.2207 222.19 30.978C221.742 30.726 221.224 30.6 220.636 30.6C219.992 30.6 219.418 30.7447 218.914 31.034C218.41 31.3233 218.014 31.734 217.724 32.266C217.444 32.798 217.304 33.414 217.304 34.114C217.304 34.814 217.444 35.4347 217.724 35.976C218.014 36.508 218.41 36.9187 218.914 37.208C219.418 37.4973 219.992 37.642 220.636 37.642C221.504 37.642 222.209 37.3993 222.75 36.914C223.292 36.4287 223.623 35.7707 223.744 34.94H220.09V33.666H225.452V34.912C225.35 35.668 225.079 36.3633 224.64 36.998C224.211 37.6327 223.646 38.1413 222.946 38.524C222.256 38.8973 221.486 39.084 220.636 39.084C219.722 39.084 218.886 38.874 218.13 38.454C217.374 38.0247 216.772 37.432 216.324 36.676C215.886 35.92 215.666 35.066 215.666 34.114C215.666 33.162 215.886 32.308 216.324 31.552C216.772 30.796 217.374 30.208 218.13 29.788C218.896 29.3587 219.731 29.144 220.636 29.144C221.672 29.144 222.592 29.4007 223.394 29.914C224.206 30.418 224.794 31.1367 225.158 32.07H223.24ZM230.373 39.126C229.645 39.126 228.987 38.9627 228.399 38.636C227.811 38.3 227.349 37.8333 227.013 37.236C226.677 36.6293 226.509 35.9293 226.509 35.136C226.509 34.352 226.681 33.6567 227.027 33.05C227.372 32.4433 227.843 31.9767 228.441 31.65C229.038 31.3233 229.705 31.16 230.443 31.16C231.18 31.16 231.847 31.3233 232.445 31.65C233.042 31.9767 233.513 32.4433 233.859 33.05C234.204 33.6567 234.377 34.352 234.377 35.136C234.377 35.92 234.199 36.6153 233.845 37.222C233.49 37.8287 233.005 38.3 232.389 38.636C231.782 38.9627 231.11 39.126 230.373 39.126ZM230.373 37.74C230.783 37.74 231.166 37.642 231.521 37.446C231.885 37.25 232.179 36.956 232.403 36.564C232.627 36.172 232.739 35.696 232.739 35.136C232.739 34.576 232.631 34.1047 232.417 33.722C232.202 33.33 231.917 33.036 231.563 32.84C231.208 32.644 230.825 32.546 230.415 32.546C230.004 32.546 229.621 32.644 229.267 32.84C228.921 33.036 228.646 33.33 228.441 33.722C228.235 34.1047 228.133 34.576 228.133 35.136C228.133 35.9667 228.343 36.6107 228.763 37.068C229.192 37.516 229.729 37.74 230.373 37.74ZM239.3 39.126C238.572 39.126 237.914 38.9627 237.326 38.636C236.738 38.3 236.276 37.8333 235.94 37.236C235.604 36.6293 235.436 35.9293 235.436 35.136C235.436 34.352 235.609 33.6567 235.954 33.05C236.3 32.4433 236.771 31.9767 237.368 31.65C237.966 31.3233 238.633 31.16 239.37 31.16C240.108 31.16 240.775 31.3233 241.372 31.65C241.97 31.9767 242.441 32.4433 242.786 33.05C243.132 33.6567 243.304 34.352 243.304 35.136C243.304 35.92 243.127 36.6153 242.772 37.222C242.418 37.8287 241.932 38.3 241.316 38.636C240.71 38.9627 240.038 39.126 239.3 39.126ZM239.3 37.74C239.711 37.74 240.094 37.642 240.448 37.446C240.812 37.25 241.106 36.956 241.33 36.564C241.554 36.172 241.666 35.696 241.666 35.136C241.666 34.576 241.559 34.1047 241.344 33.722C241.13 33.33 240.845 33.036 240.49 32.84C240.136 32.644 239.753 32.546 239.342 32.546C238.932 32.546 238.549 32.644 238.194 32.84C237.849 33.036 237.574 33.33 237.368 33.722C237.163 34.1047 237.06 34.576 237.06 35.136C237.06 35.9667 237.27 36.6107 237.69 37.068C238.12 37.516 238.656 37.74 239.3 37.74ZM247.99 31.16C248.587 31.16 249.115 31.2813 249.572 31.524C250.039 31.7573 250.403 32.0513 250.664 32.406V31.286H252.274V39.126C252.274 39.8353 252.125 40.4653 251.826 41.016C251.527 41.576 251.093 42.0147 250.524 42.332C249.964 42.6493 249.292 42.808 248.508 42.808C247.463 42.808 246.595 42.5607 245.904 42.066C245.213 41.5807 244.821 40.918 244.728 40.078H246.31C246.431 40.4793 246.688 40.8013 247.08 41.044C247.481 41.296 247.957 41.422 248.508 41.422C249.152 41.422 249.67 41.226 250.062 40.834C250.463 40.442 250.664 39.8727 250.664 39.126V37.838C250.393 38.202 250.025 38.51 249.558 38.762C249.101 39.0047 248.578 39.126 247.99 39.126C247.318 39.126 246.702 38.958 246.142 38.622C245.591 38.2767 245.153 37.8007 244.826 37.194C244.509 36.578 244.35 35.8827 244.35 35.108C244.35 34.3333 244.509 33.6473 244.826 33.05C245.153 32.4527 245.591 31.9907 246.142 31.664C246.702 31.328 247.318 31.16 247.99 31.16ZM250.664 35.136C250.664 34.604 250.552 34.142 250.328 33.75C250.113 33.358 249.829 33.0593 249.474 32.854C249.119 32.6487 248.737 32.546 248.326 32.546C247.915 32.546 247.533 32.6487 247.178 32.854C246.823 33.05 246.534 33.344 246.31 33.736C246.095 34.1187 245.988 34.576 245.988 35.108C245.988 35.64 246.095 36.1067 246.31 36.508C246.534 36.9093 246.823 37.2173 247.178 37.432C247.542 37.6373 247.925 37.74 248.326 37.74C248.737 37.74 249.119 37.6373 249.474 37.432C249.829 37.2267 250.113 36.928 250.328 36.536C250.552 36.1347 250.664 35.668 250.664 35.136ZM255.966 28.64V39H254.37V28.64H255.966ZM265.132 34.954C265.132 35.2433 265.113 35.5047 265.076 35.738H259.182C259.228 36.354 259.457 36.8487 259.868 37.222C260.278 37.5953 260.782 37.782 261.38 37.782C262.238 37.782 262.845 37.4227 263.2 36.704H264.922C264.688 37.4133 264.264 37.9967 263.648 38.454C263.041 38.902 262.285 39.126 261.38 39.126C260.642 39.126 259.98 38.9627 259.392 38.636C258.813 38.3 258.356 37.8333 258.02 37.236C257.693 36.6293 257.53 35.9293 257.53 35.136C257.53 34.3427 257.688 33.6473 258.006 33.05C258.332 32.4433 258.785 31.9767 259.364 31.65C259.952 31.3233 260.624 31.16 261.38 31.16C262.108 31.16 262.756 31.3187 263.326 31.636C263.895 31.9533 264.338 32.4013 264.656 32.98C264.973 33.5493 265.132 34.2073 265.132 34.954ZM263.466 34.45C263.456 33.862 263.246 33.3907 262.836 33.036C262.425 32.6813 261.916 32.504 261.31 32.504C260.759 32.504 260.288 32.6813 259.896 33.036C259.504 33.3813 259.27 33.8527 259.196 34.45H263.466Z" fill="black"/>
</g>
<defs>
<filter id="filter0_d_1_1979" x="0" y="0" width="392" height="68" filterUnits="userSpaceOnUse" color-interpolation-filters="sRGB">
<feFlood flood-opacity="0" result="BackgroundImageFix"/>
<feColorMatrix in="SourceAlpha" type="matrix" values="0 0 0 0 0 0 0 0 0 0 0 0 0 0 0 0 0 0 127 0" result="hardAlpha"/>
<feMorphology radius="1" operator="dilate" in="SourceAlpha" result="effect1_dropShadow_1_1979"/>
<feOffset/>
<feGaussianBlur stdDeviation="2.5"/>
<feComposite in2="hardAlpha" operator="out"/>
<feColorMatrix type="matrix" values="0 0 0 0 0 0 0 0 0 0 0 0 0 0 0 0 0 0 0.15 0"/>
<feBlend mode="normal" in2="BackgroundImageFix" result="effect1_dropShadow_1_1979"/>
<feBlend mode="normal" in="SourceGraphic" in2="effect1_dropShadow_1_1979" result="shape"/>
</filter>
</defs>
</svg>
