<svg width="743" height="105" viewBox="0 0 743 105" fill="none" xmlns="http://www.w3.org/2000/svg">
<path d="M15.248 40V20.064L24.768 29.584V40H15.248ZM0.8 1.528H39.272V11.048H24.768V25.216L15.248 15.696V11.048H0.8V1.528ZM60.2309 12.896L67.0069 12.952V26.504C67.0069 28.632 66.5029 30.648 65.5509 32.552C64.6549 34.344 63.3669 35.968 61.7989 37.2L61.4069 37.48L56.5349 32.608L57.0949 32.272C57.4869 31.992 57.8789 31.656 58.2149 31.32C59.5029 30.032 60.2309 28.296 60.2309 26.448V12.896ZM53.9029 33.336L53.9589 33.224L59.3349 38.6L58.6069 38.936C56.9269 39.664 55.1349 40.056 53.2869 40.056C50.5429 40.056 47.9109 39.216 45.6709 37.648C41.9749 35.128 39.7909 30.928 39.7909 26.448V19L46.5109 25.72V26.448C46.5109 28.296 47.2389 30.032 48.5269 31.32C49.8149 32.608 51.5509 33.336 53.3989 33.336C53.5669 33.336 53.7349 33.336 53.9029 33.336ZM46.3989 12.84V22.584L39.6789 15.864V12.84H46.3989ZM89.854 29.808L100.326 40.112H89.91L89.742 39.944L79.326 29.584L72.606 22.864V12.952H90.75C91.254 12.952 91.758 13.008 92.262 13.12C93.774 13.4 95.174 14.128 96.294 15.248C97.302 16.256 98.03 17.544 98.366 18.944C98.534 19.56 98.59 20.176 98.59 20.792C98.59 21.072 98.59 21.352 98.534 21.632C98.422 23.816 97.526 25.832 96.014 27.344C94.502 28.856 92.486 29.752 90.302 29.808H90.19C90.078 29.808 89.966 29.808 89.854 29.808ZM89.462 23.2L89.518 23.48C89.686 23.48 89.854 23.48 90.022 23.424C90.134 23.424 90.246 23.368 90.358 23.312C90.694 23.2 90.974 23.032 91.198 22.808C91.254 22.752 91.31 22.696 91.366 22.64C91.366 22.584 91.366 22.528 91.422 22.472C91.422 22.416 91.422 22.36 91.422 22.304C91.478 22.192 91.534 22.08 91.59 21.968C91.702 21.688 91.758 21.352 91.758 21.016C91.758 20.96 91.758 20.904 91.758 20.848C91.758 20.792 91.758 20.736 91.758 20.68C91.758 20.568 91.758 20.456 91.758 20.344C91.702 20.232 91.646 20.12 91.59 20.008H79.83L83.022 23.2H89.462ZM72.718 40.392V26.224L79.438 32.944V40.392H72.718ZM105.8 40V24.432L112.52 31.152V40H105.8ZM124.224 18.664L130.776 12.112V40H124.448L124.168 39.72L116.776 32.328L112.464 28.016L105.744 21.296V12.84H106.808L106.976 13.008L124.056 30.088V18.832L124.224 18.664ZM136.37 12.896H143.09V22.976L136.37 16.256V12.896ZM136.37 40V19.28L143.09 26V40H136.37ZM148.675 40V24.432L155.395 31.152V40H148.675ZM167.099 18.664L173.651 12.112V40H167.323L167.043 39.72L159.651 32.328L155.339 28.016L148.619 21.296V12.84H149.683L149.851 13.008L166.931 30.088V18.832L167.099 18.664ZM187.309 22.36L186.973 22.808L182.157 17.992L182.493 17.6C185.069 14.52 188.821 12.784 192.797 12.784C195.541 12.784 198.229 13.624 200.525 15.192C203.381 17.152 205.341 20.064 206.069 23.424L206.237 24.096H199.293L199.181 23.76C198.845 22.92 198.341 22.192 197.725 21.576C196.437 20.288 194.701 19.56 192.853 19.56C191.005 19.56 189.269 20.288 187.981 21.576C187.757 21.8 187.533 22.08 187.309 22.36ZM194.253 28.632H206.349V39.888H199.629V38.096C197.557 39.328 195.205 39.944 192.797 39.944C189.157 39.944 185.741 38.544 183.165 35.968C180.589 33.392 179.189 29.976 179.189 26.336C179.189 24.264 179.637 22.304 180.533 20.456L180.869 19.784L186.077 24.992L186.021 25.272C185.965 25.608 185.965 25.944 185.965 26.28C185.965 28.128 186.693 29.864 187.981 31.152C189.269 32.44 191.005 33.168 192.853 33.168C194.253 33.168 195.597 32.776 196.717 31.992L194.253 28.632ZM248.047 30.48L270.615 30.536V40.056H238.527V18.272L248.047 27.792V30.48ZM270.615 25.608L250.119 25.664L238.471 14.016V1.584H270.615V11.104H249.055L254.039 16.088H270.615V25.608ZM280.92 12.168L284.168 19.112L290.384 32.216L290.272 32.44L286.688 40L273.472 12.168H280.92ZM292.456 12.168H299.904L292.288 28.24L291.56 29.696L287.864 21.856L287.976 21.576L292.456 12.168ZM312.293 33.28H328.197V40H305.573V24.656L312.293 31.376V33.28ZM328.197 29.808L313.693 29.752L305.517 21.576V12.84H328.141V19.56H312.965L316.493 23.088H328.197V29.808ZM351.096 29.808L361.568 40.112H351.152L350.984 39.944L340.568 29.584L333.848 22.864V12.952H351.992C352.496 12.952 353 13.008 353.504 13.12C355.016 13.4 356.416 14.128 357.536 15.248C358.544 16.256 359.272 17.544 359.608 18.944C359.776 19.56 359.832 20.176 359.832 20.792C359.832 21.072 359.832 21.352 359.776 21.632C359.664 23.816 358.768 25.832 357.256 27.344C355.744 28.856 353.728 29.752 351.544 29.808H351.432C351.32 29.808 351.208 29.808 351.096 29.808ZM350.704 23.2L350.76 23.48C350.928 23.48 351.096 23.48 351.264 23.424C351.376 23.424 351.488 23.368 351.6 23.312C351.936 23.2 352.216 23.032 352.44 22.808C352.496 22.752 352.552 22.696 352.608 22.64C352.608 22.584 352.608 22.528 352.664 22.472C352.664 22.416 352.664 22.36 352.664 22.304C352.72 22.192 352.776 22.08 352.832 21.968C352.944 21.688 353 21.352 353 21.016C353 20.96 353 20.904 353 20.848C353 20.792 353 20.736 353 20.68C353 20.568 353 20.456 353 20.344C352.944 20.232 352.888 20.12 352.832 20.008H341.072L344.264 23.2H350.704ZM333.96 40.392V26.224L340.68 32.944V40.392H333.96ZM376.963 40V30.872L383.683 37.592V40H376.963ZM389.171 12.84H398.579L383.627 27.792V34.456L382.675 33.56L376.907 27.792L361.955 12.84H371.475L371.643 13.008L380.323 21.688L389.171 12.84ZM464.128 12.84L464.016 12.672C464.016 15.64 462.84 18.496 460.768 20.624C462.84 22.752 464.016 25.608 464.016 28.576C464.016 29.528 463.904 30.48 463.68 31.376C462.504 36.08 458.472 39.496 453.6 39.888C453.32 39.888 453.04 39.888 452.76 39.888H430.752V21.688L440.272 31.208V31.6H450.632C452.256 31.6 453.544 30.312 453.544 28.688C453.544 27.064 452.256 25.776 450.632 25.776H440.272V26.896L430.752 17.376V1.472H452.76C457.968 1.472 462.504 5 463.792 10.04C464.016 10.936 464.128 11.888 464.128 12.84ZM440.216 9.984L440.272 13.288L442.792 15.808H450.576C452.2 15.808 453.488 14.52 453.488 12.896C453.488 11.272 452.2 9.984 450.576 9.984H440.216ZM476.465 33.28H492.369V40H469.745V24.656L476.465 31.376V33.28ZM492.369 29.808L477.865 29.752L469.689 21.576V12.84H492.313V19.56H477.137L480.665 23.088H492.369V29.808ZM508.156 40V25.944L514.876 32.664V40H508.156ZM497.964 12.896H525.068V19.616H514.876V29.584L508.156 22.864V19.616H497.964V12.896ZM557.245 1.528H566.765V15.808L557.245 6.288V1.528ZM557.245 40V10.656L566.765 20.176V40H557.245ZM572.339 40V24.432L579.059 31.152V40H572.339ZM590.763 18.664L597.315 12.112V40H590.987L590.707 39.72L583.315 32.328L579.003 28.016L572.283 21.296V12.84H573.347L573.515 13.008L590.595 30.088V18.832L590.763 18.664ZM613.101 40V25.944L619.821 32.664V40H613.101ZM602.909 12.896H630.013V19.616H619.821V29.584L613.101 22.864V19.616H602.909V12.896ZM658.741 16.872L658.909 17.04C661.485 19.616 662.885 23.032 662.885 26.672C662.885 29.696 661.877 32.552 660.029 34.96L659.637 35.464L654.821 30.648L655.045 30.256C655.717 29.192 656.053 27.904 656.053 26.616C656.053 24.768 655.325 23.032 654.037 21.744C652.749 20.456 651.013 19.728 649.165 19.728C647.877 19.728 646.589 20.064 645.525 20.736L645.133 20.96L640.317 16.144L640.821 15.752C643.229 13.904 646.085 12.896 649.109 12.896C652.749 12.896 656.165 14.296 658.741 16.872ZM652.973 32.384L653.197 31.992L658.013 36.808L657.509 37.2C655.101 39.048 652.245 40.056 649.221 40.056C645.581 40.056 642.165 38.656 639.589 36.08C637.013 33.504 635.613 30.088 635.613 26.448C635.613 23.424 636.621 20.568 638.469 18.16L638.861 17.656L643.677 22.472L643.453 22.864C642.781 23.928 642.445 25.216 642.445 26.504C642.445 28.352 643.173 30.088 644.461 31.376C645.749 32.664 647.485 33.392 649.333 33.392C650.621 33.392 651.909 33.056 652.973 32.384ZM694.894 40L711.358 12.952L716.902 22.136L706.038 40H694.894ZM718.694 0.855997L742.438 40.056H731.294L728.998 36.248L713.15 9.984L718.694 0.855997ZM27.12 72.304L30.368 79.36L18.72 104L0.8 66.256H11.272L19.448 83.448L25.216 71.24L25.944 69.728L27.12 72.304ZM39.72 66.2H50.248L37.424 93.136L32.272 103.944L31.488 102.264L27.064 93.024L27.008 92.912L31.712 83.056L32.216 81.936L39.72 66.2ZM54.7219 76.896H61.4419V86.976L54.7219 80.256V76.896ZM54.7219 104V83.28L61.4419 90V104H54.7219ZM67.0266 104V88.432L73.7466 95.152V104H67.0266ZM85.4506 82.664L92.0026 76.112V104H85.6746L85.3946 103.72L78.0026 96.328L73.6906 92.016L66.9706 85.296V76.84H68.0346L68.2026 77.008L85.2826 94.088V82.832L85.4506 82.664ZM97.5969 104V88.432L104.317 95.152V104H97.5969ZM116.021 82.664L122.573 76.112V104H116.245L115.965 103.72L108.573 96.328L104.261 92.016L97.5409 85.296V76.84H98.6049L98.7729 77.008L115.853 94.088V82.832L116.021 82.664ZM128.167 76.896H134.887V86.976L128.167 80.256V76.896ZM128.167 104V83.28L134.887 90V104H128.167ZM140.472 104V88.432L147.192 95.152V104H140.472ZM158.896 82.664L165.448 76.112V104H159.12L158.84 103.72L151.448 96.328L147.136 92.016L140.416 85.296V76.84H141.48L141.648 77.008L158.728 94.088V82.832L158.896 82.664ZM179.106 86.36L178.77 86.808L173.954 81.992L174.29 81.6C176.866 78.52 180.618 76.784 184.594 76.784C187.338 76.784 190.026 77.624 192.322 79.192C195.178 81.152 197.138 84.064 197.866 87.424L198.034 88.096H191.09L190.978 87.76C190.642 86.92 190.138 86.192 189.522 85.576C188.234 84.288 186.498 83.56 184.65 83.56C182.802 83.56 181.066 84.288 179.778 85.576C179.554 85.8 179.33 86.08 179.106 86.36ZM186.05 92.632H198.146V103.888H191.426V102.096C189.354 103.328 187.002 103.944 184.594 103.944C180.954 103.944 177.538 102.544 174.962 99.968C172.386 97.392 170.986 93.976 170.986 90.336C170.986 88.264 171.434 86.304 172.33 84.456L172.666 83.784L177.874 88.992L177.818 89.272C177.762 89.608 177.762 89.944 177.762 90.28C177.762 92.128 178.49 93.864 179.778 95.152C181.066 96.44 182.802 97.168 184.65 97.168C186.05 97.168 187.394 96.776 188.514 95.992L186.05 92.632ZM263.195 71.128L263.139 71.072C266.779 74.712 268.795 79.528 268.795 84.68C268.795 88.992 267.395 93.08 264.763 96.496L264.203 97.168L257.427 90.392L257.763 89.888C258.715 88.376 259.219 86.584 259.219 84.736C259.219 82.16 258.211 79.752 256.363 77.904C254.515 76.056 252.107 75.048 249.531 75.048C247.683 75.048 245.891 75.552 244.379 76.504L243.875 76.84L237.099 70.064L237.771 69.504C241.187 66.872 245.275 65.472 249.587 65.472C254.739 65.472 259.555 67.488 263.195 71.128ZM254.683 92.856L255.243 92.576L262.019 99.352L261.347 99.912C257.931 102.544 253.843 103.944 249.531 103.944C244.379 103.944 239.563 101.928 235.923 98.288C232.283 94.648 230.267 89.832 230.267 84.68C230.267 80.368 231.667 76.28 234.299 72.864L234.859 72.192L241.635 78.968L241.299 79.472C240.347 80.984 239.843 82.776 239.843 84.624C239.843 87.2 240.851 89.608 242.699 91.456C244.547 93.304 246.955 94.312 249.531 94.312C251.379 94.312 253.171 93.808 254.683 92.856ZM295.919 83.056V83.112C296.087 83.728 296.143 84.344 296.143 84.96C296.143 86.752 295.583 88.432 294.463 89.832C294.295 90.056 294.071 90.28 293.847 90.504C292.335 92.016 290.375 92.856 288.247 92.856H279.847L273.911 86.92V77.008H288.247C290.375 77.008 292.335 77.848 293.847 79.36C294.855 80.368 295.583 81.656 295.919 83.056ZM288.751 86.416V86.304C289.087 85.912 289.255 85.408 289.255 84.904C289.255 84.736 289.255 84.568 289.199 84.4C289.087 84.008 288.863 83.616 288.583 83.336C288.135 82.888 287.575 82.664 286.959 82.664H280.631V83.56L284.327 87.256H286.959C287.575 87.256 288.135 87.032 288.583 86.584C288.639 86.528 288.695 86.472 288.751 86.416ZM273.911 103.944V89.888L280.631 96.608V103.944H273.911ZM323.809 83.056V83.112C323.977 83.728 324.033 84.344 324.033 84.96C324.033 86.752 323.473 88.432 322.353 89.832C322.185 90.056 321.961 90.28 321.737 90.504C320.225 92.016 318.265 92.856 316.137 92.856H307.737L301.801 86.92V77.008H316.137C318.265 77.008 320.225 77.848 321.737 79.36C322.745 80.368 323.473 81.656 323.809 83.056ZM316.641 86.416V86.304C316.977 85.912 317.145 85.408 317.145 84.904C317.145 84.736 317.145 84.568 317.089 84.4C316.977 84.008 316.753 83.616 316.473 83.336C316.025 82.888 315.465 82.664 314.849 82.664H308.521V83.56L312.217 87.256H314.849C315.465 87.256 316.025 87.032 316.473 86.584C316.529 86.528 316.585 86.472 316.641 86.416ZM301.801 103.944V89.888L308.521 96.608V103.944H301.801ZM352.764 80.872L352.932 81.04C355.508 83.616 356.908 87.032 356.908 90.672C356.908 93.696 355.9 96.552 354.052 98.96L353.66 99.464L348.844 94.648L349.068 94.256C349.74 93.192 350.076 91.904 350.076 90.616C350.076 88.768 349.348 87.032 348.06 85.744C346.772 84.456 345.036 83.728 343.188 83.728C341.9 83.728 340.612 84.064 339.548 84.736L339.156 84.96L334.34 80.144L334.844 79.752C337.252 77.904 340.108 76.896 343.132 76.896C346.772 76.896 350.188 78.296 352.764 80.872ZM346.996 96.384L347.22 95.992L352.036 100.808L351.532 101.2C349.124 103.048 346.268 104.056 343.244 104.056C339.604 104.056 336.188 102.656 333.612 100.08C331.036 97.504 329.636 94.088 329.636 90.448C329.636 87.424 330.644 84.568 332.492 82.16L332.884 81.656L337.7 86.472L337.476 86.864C336.804 87.928 336.468 89.216 336.468 90.504C336.468 92.352 337.196 94.088 338.484 95.376C339.772 96.664 341.508 97.392 343.356 97.392C344.644 97.392 345.932 97.056 346.996 96.384ZM379.643 93.808L390.115 104.112H379.699L379.531 103.944L369.115 93.584L362.395 86.864V76.952H380.539C381.043 76.952 381.547 77.008 382.051 77.12C383.563 77.4 384.963 78.128 386.083 79.248C387.091 80.256 387.819 81.544 388.155 82.944C388.323 83.56 388.379 84.176 388.379 84.792C388.379 85.072 388.379 85.352 388.323 85.632C388.211 87.816 387.315 89.832 385.803 91.344C384.291 92.856 382.275 93.752 380.091 93.808H379.979C379.867 93.808 379.755 93.808 379.643 93.808ZM379.251 87.2L379.307 87.48C379.475 87.48 379.643 87.48 379.811 87.424C379.923 87.424 380.035 87.368 380.147 87.312C380.483 87.2 380.763 87.032 380.987 86.808C381.043 86.752 381.099 86.696 381.155 86.64C381.155 86.584 381.155 86.528 381.211 86.472C381.211 86.416 381.211 86.36 381.211 86.304C381.267 86.192 381.323 86.08 381.379 85.968C381.491 85.688 381.547 85.352 381.547 85.016C381.547 84.96 381.547 84.904 381.547 84.848C381.547 84.792 381.547 84.736 381.547 84.68C381.547 84.568 381.547 84.456 381.547 84.344C381.491 84.232 381.435 84.12 381.379 84.008H369.619L372.811 87.2H379.251ZM362.507 104.392V90.224L369.227 96.944V104.392H362.507ZM405.781 104V89.944L412.501 96.664V104H405.781ZM395.589 76.896H422.693V83.616H412.501V93.584L405.781 86.864V83.616H395.589V76.896ZM448.676 76.896L455.452 76.952V90.504C455.452 92.632 454.948 94.648 453.996 96.552C453.1 98.344 451.812 99.968 450.244 101.2L449.852 101.48L444.98 96.608L445.54 96.272C445.932 95.992 446.324 95.656 446.66 95.32C447.948 94.032 448.676 92.296 448.676 90.448V76.896ZM442.348 97.336L442.404 97.224L447.78 102.6L447.052 102.936C445.372 103.664 443.58 104.056 441.732 104.056C438.988 104.056 436.356 103.216 434.116 101.648C430.42 99.128 428.236 94.928 428.236 90.448V83L434.956 89.72V90.448C434.956 92.296 435.684 94.032 436.972 95.32C438.26 96.608 439.996 97.336 441.844 97.336C442.012 97.336 442.18 97.336 442.348 97.336ZM434.844 76.84V86.584L428.124 79.864V76.84H434.844ZM460.995 104V88.432L467.715 95.152V104H460.995ZM479.419 82.664L485.971 76.112V104H479.643L479.363 103.72L471.971 96.328L467.659 92.016L460.939 85.296V76.84H462.003L462.171 77.008L479.251 94.088V82.832L479.419 82.664ZM491.566 76.896H498.286V86.976L491.566 80.256V76.896ZM491.566 104V83.28L498.286 90V104H491.566ZM514.062 104V89.944L520.782 96.664V104H514.062ZM503.87 76.896H530.974V83.616H520.782V93.584L514.062 86.864V83.616H503.87V76.896ZM546.494 104V94.872L553.214 101.592V104H546.494ZM558.702 76.84H568.11L553.158 91.792V98.456L552.206 97.56L546.438 91.792L531.486 76.84H541.006L541.174 77.008L549.854 85.688L558.702 76.84Z" fill="white"/>
</svg>
