<svg width="392" height="68" viewBox="0 0 392 68" fill="none" xmlns="http://www.w3.org/2000/svg">
<g filter="url(#filter0_d_1_25)">
<rect x="6" y="6" width="380" height="56" rx="28" fill="white"/>
<path d="M123.999 34.7266C124.011 34.0251 123.938 33.3248 123.783 32.6406H114.203V36.4272H119.827C119.72 37.0911 119.48 37.7266 119.122 38.2955C118.763 38.8644 118.294 39.3549 117.741 39.7376L117.721 39.8644L120.75 42.2109L120.96 42.2319C122.887 40.4519 123.998 37.8329 123.998 34.7266" fill="#4285F4"/>
<path d="M114.203 44.7038C116.958 44.7038 119.271 43.7968 120.96 42.2322L117.741 39.7379C116.879 40.339 115.723 40.7585 114.203 40.7585C112.913 40.7509 111.658 40.3373 110.616 39.5762C109.574 38.8151 108.798 37.7452 108.399 36.5183L108.279 36.5285L105.13 38.966L105.088 39.0804C105.937 40.771 107.238 42.1923 108.848 43.1854C110.458 44.1785 112.312 44.7042 114.204 44.7038" fill="#34A853"/>
<path d="M108.399 36.5182C108.176 35.8687 108.06 35.187 108.058 34.5002C108.062 33.8146 108.173 33.1338 108.387 32.4823L108.381 32.347L105.193 29.8704L105.088 29.92C104.373 31.3407 104 32.9094 104 34.5001C104 36.0909 104.373 37.6596 105.088 39.0803L108.399 36.5182Z" fill="#FBBC05"/>
<path d="M114.203 28.2422C115.665 28.2195 117.079 28.764 118.149 29.7614L121.028 26.9497C119.181 25.2171 116.736 24.2664 114.203 24.2969C112.312 24.2964 110.458 24.8221 108.848 25.8151C107.238 26.8082 105.936 28.2295 105.088 29.92L108.387 32.4823C108.791 31.2557 109.569 30.1866 110.613 29.4259C111.656 28.6652 112.912 28.2511 114.203 28.2422Z" fill="#EB4335"/>
<path d="M136.518 34.114C136.518 33.162 136.737 32.308 137.176 31.552C137.624 30.796 138.226 30.208 138.982 29.788C139.747 29.3587 140.583 29.144 141.488 29.144C142.524 29.144 143.443 29.4007 144.246 29.914C145.058 30.418 145.646 31.1367 146.01 32.07H144.092C143.84 31.5567 143.49 31.174 143.042 30.922C142.594 30.67 142.076 30.544 141.488 30.544C140.844 30.544 140.27 30.6887 139.766 30.978C139.262 31.2673 138.865 31.6827 138.576 32.224C138.296 32.7653 138.156 33.3953 138.156 34.114C138.156 34.8327 138.296 35.4627 138.576 36.004C138.865 36.5453 139.262 36.9653 139.766 37.264C140.27 37.5533 140.844 37.698 141.488 37.698C142.076 37.698 142.594 37.572 143.042 37.32C143.49 37.068 143.84 36.6853 144.092 36.172H146.01C145.646 37.1053 145.058 37.824 144.246 38.328C143.443 38.832 142.524 39.084 141.488 39.084C140.573 39.084 139.738 38.874 138.982 38.454C138.226 38.0247 137.624 37.432 137.176 36.676C136.737 35.92 136.518 35.066 136.518 34.114ZM151.224 39.126C150.496 39.126 149.838 38.9627 149.25 38.636C148.662 38.3 148.2 37.8333 147.864 37.236C147.528 36.6293 147.36 35.9293 147.36 35.136C147.36 34.352 147.533 33.6567 147.878 33.05C148.223 32.4433 148.695 31.9767 149.292 31.65C149.889 31.3233 150.557 31.16 151.294 31.16C152.031 31.16 152.699 31.3233 153.296 31.65C153.893 31.9767 154.365 32.4433 154.71 33.05C155.055 33.6567 155.228 34.352 155.228 35.136C155.228 35.92 155.051 36.6153 154.696 37.222C154.341 37.8287 153.856 38.3 153.24 38.636C152.633 38.9627 151.961 39.126 151.224 39.126ZM151.224 37.74C151.635 37.74 152.017 37.642 152.372 37.446C152.736 37.25 153.03 36.956 153.254 36.564C153.478 36.172 153.59 35.696 153.59 35.136C153.59 34.576 153.483 34.1047 153.268 33.722C153.053 33.33 152.769 33.036 152.414 32.84C152.059 32.644 151.677 32.546 151.266 32.546C150.855 32.546 150.473 32.644 150.118 32.84C149.773 33.036 149.497 33.33 149.292 33.722C149.087 34.1047 148.984 34.576 148.984 35.136C148.984 35.9667 149.194 36.6107 149.614 37.068C150.043 37.516 150.58 37.74 151.224 37.74ZM160.698 31.16C161.305 31.16 161.846 31.286 162.322 31.538C162.807 31.79 163.185 32.1633 163.456 32.658C163.727 33.1527 163.862 33.75 163.862 34.45V39H162.28V34.688C162.28 33.9973 162.107 33.47 161.762 33.106C161.417 32.7327 160.945 32.546 160.348 32.546C159.751 32.546 159.275 32.7327 158.92 33.106C158.575 33.47 158.402 33.9973 158.402 34.688V39H156.806V31.286H158.402V32.168C158.663 31.8507 158.995 31.6033 159.396 31.426C159.807 31.2487 160.241 31.16 160.698 31.16ZM167.76 32.588V36.858C167.76 37.1473 167.825 37.3573 167.956 37.488C168.096 37.6093 168.329 37.67 168.656 37.67H169.636V39H168.376C167.657 39 167.106 38.832 166.724 38.496C166.341 38.16 166.15 37.614 166.15 36.858V32.588H165.24V31.286H166.15V29.368H167.76V31.286H169.636V32.588H167.76ZM171.919 30.264C171.629 30.264 171.387 30.166 171.191 29.97C170.995 29.774 170.897 29.5313 170.897 29.242C170.897 28.9527 170.995 28.71 171.191 28.514C171.387 28.318 171.629 28.22 171.919 28.22C172.199 28.22 172.437 28.318 172.633 28.514C172.829 28.71 172.927 28.9527 172.927 29.242C172.927 29.5313 172.829 29.774 172.633 29.97C172.437 30.166 172.199 30.264 171.919 30.264ZM172.703 31.286V39H171.107V31.286H172.703ZM178.69 31.16C179.297 31.16 179.838 31.286 180.314 31.538C180.799 31.79 181.177 32.1633 181.448 32.658C181.719 33.1527 181.854 33.75 181.854 34.45V39H180.272V34.688C180.272 33.9973 180.099 33.47 179.754 33.106C179.409 32.7327 178.937 32.546 178.34 32.546C177.743 32.546 177.267 32.7327 176.912 33.106C176.567 33.47 176.394 33.9973 176.394 34.688V39H174.798V31.286H176.394V32.168C176.655 31.8507 176.987 31.6033 177.388 31.426C177.799 31.2487 178.233 31.16 178.69 31.16ZM190.876 31.286V39H189.28V38.09C189.028 38.4073 188.697 38.6593 188.286 38.846C187.885 39.0233 187.455 39.112 186.998 39.112C186.391 39.112 185.845 38.986 185.36 38.734C184.884 38.482 184.506 38.1087 184.226 37.614C183.955 37.1193 183.82 36.522 183.82 35.822V31.286H185.402V35.584C185.402 36.2747 185.575 36.8067 185.92 37.18C186.265 37.544 186.737 37.726 187.334 37.726C187.931 37.726 188.403 37.544 188.748 37.18C189.103 36.8067 189.28 36.2747 189.28 35.584V31.286H190.876ZM200.052 34.954C200.052 35.2433 200.033 35.5047 199.996 35.738H194.102C194.148 36.354 194.377 36.8487 194.788 37.222C195.198 37.5953 195.702 37.782 196.3 37.782C197.158 37.782 197.765 37.4227 198.12 36.704H199.842C199.608 37.4133 199.184 37.9967 198.568 38.454C197.961 38.902 197.205 39.126 196.3 39.126C195.562 39.126 194.9 38.9627 194.312 38.636C193.733 38.3 193.276 37.8333 192.94 37.236C192.613 36.6293 192.45 35.9293 192.45 35.136C192.45 34.3427 192.608 33.6473 192.926 33.05C193.252 32.4433 193.705 31.9767 194.284 31.65C194.872 31.3233 195.544 31.16 196.3 31.16C197.028 31.16 197.676 31.3187 198.246 31.636C198.815 31.9533 199.258 32.4013 199.576 32.98C199.893 33.5493 200.052 34.2073 200.052 34.954ZM198.386 34.45C198.376 33.862 198.166 33.3907 197.756 33.036C197.345 32.6813 196.836 32.504 196.23 32.504C195.679 32.504 195.208 32.6813 194.816 33.036C194.424 33.3813 194.19 33.8527 194.116 34.45H198.386ZM215.619 31.286L213.225 39H211.545L209.991 33.302L208.437 39H206.757L204.349 31.286H205.973L207.583 37.488L209.221 31.286H210.887L212.455 37.46L214.051 31.286H215.619ZM217.624 30.264C217.334 30.264 217.092 30.166 216.896 29.97C216.7 29.774 216.602 29.5313 216.602 29.242C216.602 28.9527 216.7 28.71 216.896 28.514C217.092 28.318 217.334 28.22 217.624 28.22C217.904 28.22 218.142 28.318 218.338 28.514C218.534 28.71 218.632 28.9527 218.632 29.242C218.632 29.5313 218.534 29.774 218.338 29.97C218.142 30.166 217.904 30.264 217.624 30.264ZM218.408 31.286V39H216.812V31.286H218.408ZM222.365 32.588V36.858C222.365 37.1473 222.43 37.3573 222.561 37.488C222.701 37.6093 222.934 37.67 223.261 37.67H224.241V39H222.981C222.262 39 221.712 38.832 221.329 38.496C220.946 38.16 220.755 37.614 220.755 36.858V32.588H219.845V31.286H220.755V29.368H222.365V31.286H224.241V32.588H222.365ZM229.702 31.16C230.29 31.16 230.813 31.286 231.27 31.538C231.737 31.79 232.101 32.1633 232.362 32.658C232.633 33.1527 232.768 33.75 232.768 34.45V39H231.186V34.688C231.186 33.9973 231.013 33.47 230.668 33.106C230.323 32.7327 229.851 32.546 229.254 32.546C228.657 32.546 228.181 32.7327 227.826 33.106C227.481 33.47 227.308 33.9973 227.308 34.688V39H225.712V28.64H227.308V32.182C227.579 31.8553 227.919 31.6033 228.33 31.426C228.75 31.2487 229.207 31.16 229.702 31.16ZM245.483 32.07C245.231 31.5847 244.881 31.2207 244.433 30.978C243.985 30.726 243.467 30.6 242.879 30.6C242.235 30.6 241.661 30.7447 241.157 31.034C240.653 31.3233 240.256 31.734 239.967 32.266C239.687 32.798 239.547 33.414 239.547 34.114C239.547 34.814 239.687 35.4347 239.967 35.976C240.256 36.508 240.653 36.9187 241.157 37.208C241.661 37.4973 242.235 37.642 242.879 37.642C243.747 37.642 244.451 37.3993 244.993 36.914C245.534 36.4287 245.865 35.7707 245.987 34.94H242.333V33.666H247.695V34.912C247.592 35.668 247.321 36.3633 246.883 36.998C246.453 37.6327 245.889 38.1413 245.189 38.524C244.498 38.8973 243.728 39.084 242.879 39.084C241.964 39.084 241.129 38.874 240.373 38.454C239.617 38.0247 239.015 37.432 238.567 36.676C238.128 35.92 237.909 35.066 237.909 34.114C237.909 33.162 238.128 32.308 238.567 31.552C239.015 30.796 239.617 30.208 240.373 29.788C241.138 29.3587 241.973 29.144 242.879 29.144C243.915 29.144 244.834 29.4007 245.637 29.914C246.449 30.418 247.037 31.1367 247.401 32.07H245.483ZM252.615 39.126C251.887 39.126 251.229 38.9627 250.641 38.636C250.053 38.3 249.591 37.8333 249.255 37.236C248.919 36.6293 248.751 35.9293 248.751 35.136C248.751 34.352 248.923 33.6567 249.269 33.05C249.614 32.4433 250.085 31.9767 250.683 31.65C251.28 31.3233 251.947 31.16 252.685 31.16C253.422 31.16 254.089 31.3233 254.687 31.65C255.284 31.9767 255.755 32.4433 256.101 33.05C256.446 33.6567 256.619 34.352 256.619 35.136C256.619 35.92 256.441 36.6153 256.087 37.222C255.732 37.8287 255.247 38.3 254.631 38.636C254.024 38.9627 253.352 39.126 252.615 39.126ZM252.615 37.74C253.025 37.74 253.408 37.642 253.763 37.446C254.127 37.25 254.421 36.956 254.645 36.564C254.869 36.172 254.981 35.696 254.981 35.136C254.981 34.576 254.873 34.1047 254.659 33.722C254.444 33.33 254.159 33.036 253.805 32.84C253.45 32.644 253.067 32.546 252.657 32.546C252.246 32.546 251.863 32.644 251.509 32.84C251.163 33.036 250.888 33.33 250.683 33.722C250.477 34.1047 250.375 34.576 250.375 35.136C250.375 35.9667 250.585 36.6107 251.005 37.068C251.434 37.516 251.971 37.74 252.615 37.74ZM261.542 39.126C260.814 39.126 260.156 38.9627 259.568 38.636C258.98 38.3 258.518 37.8333 258.182 37.236C257.846 36.6293 257.678 35.9293 257.678 35.136C257.678 34.352 257.851 33.6567 258.196 33.05C258.542 32.4433 259.013 31.9767 259.61 31.65C260.208 31.3233 260.875 31.16 261.612 31.16C262.35 31.16 263.017 31.3233 263.614 31.65C264.212 31.9767 264.683 32.4433 265.028 33.05C265.374 33.6567 265.546 34.352 265.546 35.136C265.546 35.92 265.369 36.6153 265.014 37.222C264.66 37.8287 264.174 38.3 263.558 38.636C262.952 38.9627 262.28 39.126 261.542 39.126ZM261.542 37.74C261.953 37.74 262.336 37.642 262.69 37.446C263.054 37.25 263.348 36.956 263.572 36.564C263.796 36.172 263.908 35.696 263.908 35.136C263.908 34.576 263.801 34.1047 263.586 33.722C263.372 33.33 263.087 33.036 262.732 32.84C262.378 32.644 261.995 32.546 261.584 32.546C261.174 32.546 260.791 32.644 260.436 32.84C260.091 33.036 259.816 33.33 259.61 33.722C259.405 34.1047 259.302 34.576 259.302 35.136C259.302 35.9667 259.512 36.6107 259.932 37.068C260.362 37.516 260.898 37.74 261.542 37.74ZM270.232 31.16C270.83 31.16 271.357 31.2813 271.814 31.524C272.281 31.7573 272.645 32.0513 272.906 32.406V31.286H274.516V39.126C274.516 39.8353 274.367 40.4653 274.068 41.016C273.77 41.576 273.336 42.0147 272.766 42.332C272.206 42.6493 271.534 42.808 270.75 42.808C269.705 42.808 268.837 42.5607 268.146 42.066C267.456 41.5807 267.064 40.918 266.97 40.078H268.552C268.674 40.4793 268.93 40.8013 269.322 41.044C269.724 41.296 270.2 41.422 270.75 41.422C271.394 41.422 271.912 41.226 272.304 40.834C272.706 40.442 272.906 39.8727 272.906 39.126V37.838C272.636 38.202 272.267 38.51 271.8 38.762C271.343 39.0047 270.82 39.126 270.232 39.126C269.56 39.126 268.944 38.958 268.384 38.622C267.834 38.2767 267.395 37.8007 267.068 37.194C266.751 36.578 266.592 35.8827 266.592 35.108C266.592 34.3333 266.751 33.6473 267.068 33.05C267.395 32.4527 267.834 31.9907 268.384 31.664C268.944 31.328 269.56 31.16 270.232 31.16ZM272.906 35.136C272.906 34.604 272.794 34.142 272.57 33.75C272.356 33.358 272.071 33.0593 271.716 32.854C271.362 32.6487 270.979 32.546 270.568 32.546C270.158 32.546 269.775 32.6487 269.42 32.854C269.066 33.05 268.776 33.344 268.552 33.736C268.338 34.1187 268.23 34.576 268.23 35.108C268.23 35.64 268.338 36.1067 268.552 36.508C268.776 36.9093 269.066 37.2173 269.42 37.432C269.784 37.6373 270.167 37.74 270.568 37.74C270.979 37.74 271.362 37.6373 271.716 37.432C272.071 37.2267 272.356 36.928 272.57 36.536C272.794 36.1347 272.906 35.668 272.906 35.136ZM278.209 28.64V39H276.613V28.64H278.209ZM287.374 34.954C287.374 35.2433 287.355 35.5047 287.318 35.738H281.424C281.471 36.354 281.699 36.8487 282.11 37.222C282.521 37.5953 283.025 37.782 283.622 37.782C284.481 37.782 285.087 37.4227 285.442 36.704H287.164C286.931 37.4133 286.506 37.9967 285.89 38.454C285.283 38.902 284.527 39.126 283.622 39.126C282.885 39.126 282.222 38.9627 281.634 38.636C281.055 38.3 280.598 37.8333 280.262 37.236C279.935 36.6293 279.772 35.9293 279.772 35.136C279.772 34.3427 279.931 33.6473 280.248 33.05C280.575 32.4433 281.027 31.9767 281.606 31.65C282.194 31.3233 282.866 31.16 283.622 31.16C284.35 31.16 284.999 31.3187 285.568 31.636C286.137 31.9533 286.581 32.4013 286.898 32.98C287.215 33.5493 287.374 34.2073 287.374 34.954ZM285.708 34.45C285.699 33.862 285.489 33.3907 285.078 33.036C284.667 32.6813 284.159 32.504 283.552 32.504C283.001 32.504 282.53 32.6813 282.138 33.036C281.746 33.3813 281.513 33.8527 281.438 34.45H285.708Z" fill="black"/>
</g>
<defs>
<filter id="filter0_d_1_25" x="0" y="0" width="392" height="68" filterUnits="userSpaceOnUse" color-interpolation-filters="sRGB">
<feFlood flood-opacity="0" result="BackgroundImageFix"/>
<feColorMatrix in="SourceAlpha" type="matrix" values="0 0 0 0 0 0 0 0 0 0 0 0 0 0 0 0 0 0 127 0" result="hardAlpha"/>
<feMorphology radius="1" operator="dilate" in="SourceAlpha" result="effect1_dropShadow_1_25"/>
<feOffset/>
<feGaussianBlur stdDeviation="2.5"/>
<feComposite in2="hardAlpha" operator="out"/>
<feColorMatrix type="matrix" values="0 0 0 0 0 0 0 0 0 0 0 0 0 0 0 0 0 0 0.15 0"/>
<feBlend mode="normal" in2="BackgroundImageFix" result="effect1_dropShadow_1_25"/>
<feBlend mode="normal" in="SourceGraphic" in2="effect1_dropShadow_1_25" result="shape"/>
</filter>
</defs>
</svg>
