<svg width="573" height="48" viewBox="0 0 573 48" fill="none" xmlns="http://www.w3.org/2000/svg">
<path d="M10.3 6.74L8.56 7.74V7.78L10.3 8.78V13.66L7.98 15H0.8V0.999999H7.98L10.3 2.34V6.74ZM2.8 8.66V13.2H8.3V8.66H2.8ZM2.8 2.8V6.86H8.3V2.8H2.8ZM22.2055 13.76L19.8855 15.1H16.0255L13.7055 13.76V6.24L16.0255 4.9H19.8855L22.2055 6.24V13.76ZM15.6455 6.64V13.36H20.2655V6.64H15.6455ZM33.9047 13.76L31.5847 15.1H27.7247L25.4047 13.76V6.24L27.7247 4.9H31.5847L33.9047 6.24V13.76ZM27.3447 6.64V13.36H31.9647V6.64H27.3447ZM44.6239 10.4V13.66L42.3039 15H37.1039V13.26H42.6839V10.8H39.4239L37.1039 9.46V6.34L39.4239 5H44.4239V6.74H39.0439V9.06H42.3039L44.6239 10.4ZM47.0266 6.74V5H48.8666V3.32L50.8066 2.2V5H53.2066V6.74H50.8066V13.26H53.2066V15H51.1866L48.8666 13.66V6.74H47.0266ZM62.1255 19L63.8655 14.54L60.0055 5H61.9455L64.7855 12.12H64.8255L67.6455 5H69.5855L64.0255 19H62.1255ZM80.0766 13.76L77.7566 15.1H73.8966L71.5766 13.76V6.24L73.8966 4.9H77.7566L80.0766 6.24V13.76ZM73.5166 6.64V13.36H78.1366V6.64H73.5166ZM83.2758 13.76V5H85.2158V13.36H89.8358V5H91.7758V15.1H90.3158L89.8358 14.28L88.4158 15.1H85.5958L83.2758 13.76ZM100.555 6.74H96.915V15H94.975V5H96.435L96.915 5.82L98.335 5H100.555V6.74ZM116.084 15L113.924 7.36H113.884L111.744 15H109.444L106.944 5H108.744L110.644 12.82H110.684L112.884 5H114.944L117.144 12.82H117.184L119.084 5H120.884L118.384 15H116.084ZM125.02 5V15H123.08V5H125.02ZM122.98 2.54V0.4H125.12V2.54H122.98ZM136.717 6.24V15H134.777V6.64H130.157V15H128.217V4.9H129.677L130.157 5.72L131.577 4.9H134.397L136.717 6.24ZM148.416 6.24V15H146.476V6.64H141.856V15H139.916V4.9H141.376L141.856 5.72L143.276 4.9H146.096L148.416 6.24ZM153.556 5V15H151.616V5H153.556ZM151.516 2.54V0.4H153.656V2.54H151.516ZM165.252 6.24V15H163.312V6.64H158.692V15H156.752V4.9H158.212L158.692 5.72L160.112 4.9H162.932L165.252 6.24ZM170.392 15L168.452 13.88V12.08L169.872 11.26L168.452 10.44V6.34L170.772 5H177.152V5.68L175.332 6.74L176.552 7.46V10.22L174.232 11.56H170.392V13.26H174.832L177.152 14.6V17.76L174.832 19.1H170.372L168.052 17.76V16.52L169.992 15.4V17.4H175.212V15H170.392ZM170.392 6.7V9.86H174.612V6.7H170.392ZM187.475 10.4V13.66L185.155 15H179.955V13.26H185.535V10.8H182.275L179.955 9.46V6.34L182.275 5H187.275V6.74H181.895V9.06H185.155L187.475 10.4ZM204.013 15L201.853 7.36H201.813L199.673 15H197.373L194.873 5H196.673L198.573 12.82H198.613L200.813 5H202.873L205.073 12.82H205.113L207.013 5H208.813L206.313 15H204.013ZM212.95 5V15H211.01V5H212.95ZM210.91 2.54V0.4H213.05V2.54H210.91ZM215.347 6.74V5H217.187V3.32L219.127 2.2V5H221.527V6.74H219.127V13.26H221.527V15H219.507L217.187 13.66V6.74H215.347ZM226.27 15H224.33V0.4H226.27V5.72L227.69 4.9H230.71L233.03 6.24V15H231.09V6.64H226.27V15ZM249.32 13.26V15H243.74L241.42 13.66V6.24L243.74 4.9H247L249.32 6.24V10.68H243.36V13.26H249.32ZM243.36 6.64V8.94H247.38V6.64H243.36ZM251.314 15L254.894 9.9L251.434 5H253.594L255.914 8.44L258.234 5H260.394L256.914 9.9L260.514 15H258.414L255.914 11.34L253.414 15H251.314ZM268.894 15.1H265.874L264.454 14.28V19H262.514V4.9H263.974L264.454 5.72L265.874 4.9H268.894L271.214 6.24V13.76L268.894 15.1ZM264.454 6.64V13.36H269.274V6.64H264.454ZM282.309 13.26V15H276.729L274.409 13.66V6.24L276.729 4.9H279.989L282.309 6.24V10.68H276.349V13.26H282.309ZM276.349 6.64V8.94H280.369V6.64H276.349ZM291.082 6.74H287.442V15H285.502V5H286.962L287.442 5.82L288.862 5H291.082V6.74ZM292.476 6.74V5H294.316V3.32L296.256 2.2V5H298.656V6.74H296.256V13.26H298.656V15H296.636L294.316 13.66V6.74H292.476ZM308.595 5V15H306.655V5H308.595ZM306.555 2.54V0.4H308.695V2.54H306.555ZM320.291 6.24V15H318.351V6.64H313.731V15H311.791V4.9H313.251L313.731 5.72L315.151 4.9H317.971L320.291 6.24ZM331.011 10.4V13.66L328.691 15H323.491V13.26H329.071V10.8H325.811L323.491 9.46V6.34L325.811 5H330.811V6.74H325.431V9.06H328.691L331.011 10.4ZM336.153 5V15H334.213V5H336.153ZM334.113 2.54V0.4H336.253V2.54H334.113ZM341.29 15L339.35 13.88V12.08L340.77 11.26L339.35 10.44V6.34L341.67 5H348.05V5.68L346.23 6.74L347.45 7.46V10.22L345.13 11.56H341.29V13.26H345.73L348.05 14.6V17.76L345.73 19.1H341.27L338.95 17.76V16.52L340.89 15.4V17.4H346.11V15H341.29ZM341.29 6.7V9.86H345.51V6.7H341.29ZM352.794 15H350.854V0.4H352.794V5.72L354.214 4.9H357.234L359.554 6.24V15H357.614V6.64H352.794V15ZM361.948 6.74V5H363.788V3.32L365.728 2.2V5H368.128V6.74H365.728V13.26H368.128V15H366.108L363.788 13.66V6.74H361.948ZM378.452 10.4V13.66L376.132 15H370.932V13.26H376.512V10.8H373.252L370.932 9.46V6.34L373.252 5H378.252V6.74H372.872V9.06H376.132L378.452 10.4ZM382.055 19V12H385.055V12.84L382.895 19H382.055ZM400.222 15.1H397.202L395.782 14.28V19H393.842V4.9H395.302L395.782 5.72L397.202 4.9H400.222L402.542 6.24V13.76L400.222 15.1ZM395.782 6.64V13.36H400.602V6.64H395.782ZM411.317 6.74H407.677V15H405.737V5H407.197L407.677 5.82L409.097 5H411.317V6.74ZM421.41 13.26V15H415.83L413.51 13.66V6.24L415.83 4.9H419.09L421.41 6.24V10.68H415.45V13.26H421.41ZM415.45 6.64V8.94H419.47V6.64H415.45ZM426.544 6.74V13.26H432.104V15H426.924L424.604 13.66V6.34L426.924 5H432.104V6.74H426.544ZM436.837 5V15H434.897V5H436.837ZM434.797 2.54V0.4H436.937V2.54H434.797ZM447.554 10.4V13.66L445.234 15H440.034V13.26H445.614V10.8H442.354L440.034 9.46V6.34L442.354 5H447.354V6.74H441.974V9.06H445.234L447.554 10.4ZM452.696 5V15H450.756V5H452.696ZM450.656 2.54V0.4H452.796V2.54H450.656ZM464.393 13.76L462.073 15.1H458.213L455.893 13.76V6.24L458.213 4.9H462.073L464.393 6.24V13.76ZM457.833 6.64V13.36H462.453V6.64H457.833ZM476.092 6.24V15H474.152V6.64H469.532V15H467.592V4.9H469.052L469.532 5.72L470.952 4.9H473.772L476.092 6.24ZM486.027 10.9V13.36H490.047V10.9H486.027ZM486.407 15.1L484.087 13.76V10.5L486.407 9.16H490.047V6.74H485.087V5H489.667L491.987 6.34V15.1H491.467L490.047 14.28L488.627 15.1H486.407ZM503.69 6.24V15H501.75V6.64H497.13V15H495.19V4.9H496.65L497.13 5.72L498.55 4.9H501.37L503.69 6.24ZM508.429 10.9V13.36H512.449V10.9H508.429ZM508.809 15.1L506.489 13.76V10.5L508.809 9.16H512.449V6.74H507.489V5H512.069L514.389 6.34V15.1H513.869L512.449 14.28L511.029 15.1H508.809ZM519.912 15L517.592 13.66V0.4H519.532V13.26H521.932V15H519.912ZM524.86 19L526.6 14.54L522.74 5H524.68L527.52 12.12H527.56L530.38 5H532.32L526.76 19H524.86ZM533.511 6.74V5H535.351V3.32L537.291 2.2V5H539.691V6.74H537.291V13.26H539.691V15H537.671L535.351 13.66V6.74H533.511ZM544.435 5V15H542.495V5H544.435ZM542.395 2.54V0.4H544.535V2.54H542.395ZM549.571 6.74V13.26H555.131V15H549.951L547.631 13.66V6.34L549.951 5H555.131V6.74H549.571ZM565.444 10.4V13.66L563.124 15H557.924V13.26H563.504V10.8H560.244L557.924 9.46V6.34L560.244 5H565.244V6.74H559.864V9.06H563.124L565.444 10.4ZM569.047 19V12H572.047V12.84L569.887 19H569.047ZM2.14 39.9V42.36H6.16V39.9H2.14ZM2.52 44.1L0.2 42.76V39.5L2.52 38.16H6.16V35.74H1.2V34H5.78L8.1 35.34V44.1H7.58L6.16 43.28L4.74 44.1H2.52ZM19.8031 35.24V44H17.8631V35.64H13.2431V44H11.3031V33.9H12.7631L13.2431 34.72L14.6631 33.9H17.4831L19.8031 35.24ZM25.3223 33.9H28.3423L29.7623 34.72V29.4H31.7023V44.1H30.2423L29.7623 43.28L28.3423 44.1H25.3223L23.0023 42.76V35.24L25.3223 33.9ZM29.7623 42.36V35.64H24.9423V42.36H29.7623ZM41.6322 39.9V42.36H45.6522V39.9H41.6322ZM42.0122 44.1L39.6922 42.76V39.5L42.0122 38.16H45.6522V35.74H40.6922V34H45.2722L47.5922 35.34V44.1H47.0722L45.6522 43.28L44.2322 44.1H42.0122ZM53.1153 33.9H56.1353L57.5553 34.72V29.4H59.4953V44.1H58.0353L57.5553 43.28L56.1353 44.1H53.1153L50.7953 42.76V35.24L53.1153 33.9ZM57.5553 42.36V35.64H52.7353V42.36H57.5553ZM63.3898 34L66.3298 42.16H66.3698L69.3298 34H71.2298L67.5298 44H65.1898L61.4898 34H63.3898ZM74.7767 39.9V42.36H78.7967V39.9H74.7767ZM75.1567 44.1L72.8367 42.76V39.5L75.1567 38.16H78.7967V35.74H73.8367V34H78.4167L80.7367 35.34V44.1H80.2167L78.7967 43.28L77.3767 44.1H75.1567ZM92.4398 35.24V44H90.4998V35.64H85.8798V44H83.9398V33.9H85.3998L85.8798 34.72L87.2998 33.9H90.1198L92.4398 35.24ZM97.5791 35.74V42.26H103.139V44H97.9591L95.6391 42.66V35.34L97.9591 34H103.139V35.74H97.5791ZM113.832 42.26V44H108.252L105.932 42.66V35.24L108.252 33.9H111.512L113.832 35.24V39.68H107.872V42.26H113.832ZM107.872 35.64V37.94H111.892V35.64H107.872ZM119.346 33.9H122.366L123.786 34.72V29.4H125.726V44.1H124.266L123.786 43.28L122.366 44.1H119.346L117.026 42.76V35.24L119.346 33.9ZM123.786 42.36V35.64H118.966V42.36H123.786ZM140.396 30L145.396 44H143.436L142.256 40.68H136.056L134.876 44H132.916L137.916 30H140.396ZM139.136 31.98L136.696 38.88H141.616L139.176 31.98H139.136ZM147.597 44V30H149.597V44H147.597ZM164.578 44.1H161.558L160.138 43.28V48H158.198V33.9H159.658L160.138 34.72L161.558 33.9H164.578L166.898 35.24V42.76L164.578 44.1ZM160.138 35.64V42.36H164.958V35.64H160.138ZM175.672 35.74H172.032V44H170.092V34H171.552L172.032 34.82L173.452 34H175.672V35.74ZM185.766 42.26V44H180.186L177.866 42.66V35.24L180.186 33.9H183.446L185.766 35.24V39.68H179.806V42.26H185.766ZM179.806 35.64V37.94H183.826V35.64H179.806ZM191.279 33.9H194.299L195.719 34.72V29.4H197.659V44.1H196.199L195.719 43.28L194.299 44.1H191.279L188.959 42.76V35.24L191.279 33.9ZM195.719 42.36V35.64H190.899V42.36H195.719ZM202.794 34V44H200.854V34H202.794ZM200.754 31.54V29.4H202.894V31.54H200.754ZM207.931 35.74V42.26H213.491V44H208.311L205.991 42.66V35.34L208.311 34H213.491V35.74H207.931ZM215.484 35.74V34H217.324V32.32L219.264 31.2V34H221.664V35.74H219.264V42.26H221.664V44H219.644L217.324 42.66V35.74H215.484ZM226.407 34V44H224.467V34H226.407ZM224.367 31.54V29.4H226.507V31.54H224.367ZM238.104 42.76L235.784 44.1H231.924L229.604 42.76V35.24L231.924 33.9H235.784L238.104 35.24V42.76ZM231.544 35.64V42.36H236.164V35.64H231.544ZM249.803 35.24V44H247.863V35.64H243.243V44H241.303V33.9H242.763L243.243 34.72L244.663 33.9H247.483L249.803 35.24ZM260.522 39.4V42.66L258.202 44H253.002V42.26H258.582V39.8H255.322L253.002 38.46V35.34L255.322 34H260.322V35.74H254.942V38.06H258.202L260.522 39.4ZM264.125 44V41H267.125V44H264.125Z" fill="white"/>
</svg>
